name Walk3.mot
datacolumns 19
datarows 27
range 4.07800000 4.10400000
endheader

                time	   L_ground_force_vx	   L_ground_force_vy	   L_ground_force_vz	   L_ground_force_px	   L_ground_force_py	   L_ground_force_pz	   R_ground_force_vx	   R_ground_force_vy	   R_ground_force_vz	   R_ground_force_px	   R_ground_force_py	   R_ground_force_pz	   L_ground_torque_x	   L_ground_torque_y	   L_ground_torque_z	   R_ground_torque_x	   R_ground_torque_y	   R_ground_torque_z	
          4.07800000	         42.51170427	        953.66672461	         69.55398661	         -0.25949935	          0.00000000	         -0.07822070	         -0.01651150	          0.25128215	          0.01942885	          0.00015565	          0.00000000	          0.00011416	          0.00000000	          0.21536246	          0.00000000	          0.00000000	          0.00321010	          0.00000000	
          4.07900000	         42.86712498	        955.09329177	         69.75883379	         -0.25909825	          0.00000000	         -0.07824153	         -0.01803770	          0.26639361	          0.02023113	          0.00016240	          0.00000000	          0.00011896	          0.00000000	          0.23256802	          0.00000000	          0.00000000	          0.00351177	          0.00000000	
          4.08000000	         43.22344697	        956.50647872	         69.96526932	         -0.25869730	          0.00000000	         -0.07826232	         -0.01963122	          0.28180911	          0.02102441	          0.00016912	          0.00000000	          0.00012372	          0.00000000	          0.25014021	          0.00000000	          0.00000000	          0.00382696	          0.00000000	
          4.08100000	         43.58102120	        957.90625721	         70.17313239	         -0.25829657	          0.00000000	         -0.07828306	         -0.02129175	          0.29749325	          0.02180457	          0.00017576	          0.00000000	          0.00012841	          0.00000000	          0.26806771	          0.00000000	          0.00000000	          0.00415563	          0.00000000	
          4.08200000	         43.94019381	        959.29261275	         70.38225740	         -0.25789616	          0.00000000	         -0.07830369	         -0.02301865	          0.31340622	          0.02256718	          0.00018229	          0.00000000	          0.00013300	          0.00000000	          0.28633983	          0.00000000	          0.00000000	          0.00449768	          0.00000000	
          4.08300000	         44.30130557	        960.66554318	         70.59247480	         -0.25749613	          0.00000000	         -0.07832420	         -0.02481095	          0.32950357	          0.02330746	          0.00018867	          0.00000000	          0.00013747	          0.00000000	          0.30494612	          0.00000000	          0.00000000	          0.00485295	          0.00000000	
          4.08400000	         44.66469219	        962.02505762	         70.80361171	         -0.25709658	          0.00000000	         -0.07834454	         -0.02666734	          0.34573594	          0.02402027	          0.00019487	          0.00000000	          0.00014179	          0.00000000	          0.32387573	          0.00000000	          0.00000000	          0.00522118	          0.00000000	
          4.08500000	         45.03068523	        963.37117531	         71.01549225	         -0.25669757	          0.00000000	         -0.07836468	         -0.02858610	          0.36204885	          0.02470011	          0.00020084	          0.00000000	          0.00014593	          0.00000000	          0.34311670	          0.00000000	          0.00000000	          0.00560207	          0.00000000	
          4.08600000	         45.39961242	        964.70392420	         71.22793723	         -0.25629920	          0.00000000	         -0.07838458	         -0.03056510	          0.37838241	          0.02534112	          0.00020654	          0.00000000	          0.00014985	          0.00000000	          0.36265558	          0.00000000	          0.00000000	          0.00599522	          0.00000000	
          4.08700000	         45.77179729	        966.02333949	         71.44076369	         -0.25590154	          0.00000000	         -0.07840421	         -0.03260177	          0.39467108	          0.02593704	          0.00021191	          0.00000000	          0.00015351	          0.00000000	          0.38247723	          0.00000000	          0.00000000	          0.00640014	          0.00000000	
          4.08800000	         46.14755777	        967.32946261	         71.65378433	         -0.25550469	          0.00000000	         -0.07842354	         -0.03469306	          0.41084342	          0.02648122	          0.00021691	          0.00000000	          0.00015688	          0.00000000	          0.40256490	          0.00000000	          0.00000000	          0.00681626	          0.00000000	
          4.08900000	         46.52720425	        968.62234095	         71.86680734	         -0.25510873	          0.00000000	         -0.07844251	         -0.03683540	          0.42682183	          0.02696660	          0.00022147	          0.00000000	          0.00015991	          0.00000000	          0.42290055	          0.00000000	          0.00000000	          0.00724289	          0.00000000	
          4.09000000	         46.91103734	        969.90202828	         72.07963693	         -0.25471372	          0.00000000	         -0.07846111	         -0.03902469	          0.44252229	          0.02738571	          0.00022554	          0.00000000	          0.00016257	          0.00000000	          0.44346511	          0.00000000	          0.00000000	          0.00767926	          0.00000000	
          4.09100000	         47.29934601	        971.16858534	         72.29207445	         -0.25431977	          0.00000000	         -0.07847927	         -0.04125625	          0.45785415	          0.02773067	          0.00022907	          0.00000000	          0.00016480	          0.00000000	          0.46423871	          0.00000000	          0.00000000	          0.00812446	          0.00000000	
          4.09200000	         47.69240635	        972.42207993	         72.50391999	         -0.25392694	          0.00000000	         -0.07849696	         -0.04352479	          0.47271982	          0.02799316	          0.00023197	          0.00000000	          0.00016656	          0.00000000	          0.48520072	          0.00000000	          0.00000000	          0.00857748	          0.00000000	
          4.09300000	         48.09048111	        973.66258631	         72.71497397	         -0.25353532	          0.00000000	         -0.07851412	         -0.04582439	          0.48701460	          0.02816444	          0.00023418	          0.00000000	          0.00016779	          0.00000000	          0.50632961	          0.00000000	          0.00000000	          0.00903717	          0.00000000	
          4.09400000	         48.49382017	        974.89018414	         72.92503826	         -0.25314499	          0.00000000	         -0.07853072	         -0.04814842	          0.50062639	          0.02823531	          0.00023563	          0.00000000	          0.00016845	          0.00000000	          0.52760276	          0.00000000	          0.00000000	          0.00950226	          0.00000000	
          4.09500000	         48.90266133	        976.10495727	         73.13391664	         -0.25275602	          0.00000000	         -0.07854668	         -0.05048957	          0.51343552	          0.02819616	          0.00023625	          0.00000000	          0.00016847	          0.00000000	          0.54899633	          0.00000000	          0.00000000	          0.00997132	          0.00000000	
          4.09600000	         49.31723119	        977.30699278	         73.34141452	         -0.25236850	          0.00000000	         -0.07856196	         -0.05283975	          0.52531449	          0.02803692	          0.00023594	          0.00000000	          0.00016779	          0.00000000	          0.57048526	          0.00000000	          0.00000000	          0.01044278	          0.00000000	
          4.09700000	         49.73774559	        978.49638056	         73.54733813	         -0.25198250	          0.00000000	         -0.07857651	         -0.05519009	          0.53612782	          0.02774710	          0.00023464	          0.00000000	          0.00016636	          0.00000000	          0.59204349	          0.00000000	          0.00000000	          0.01091493	          0.00000000	
          4.09800000	         50.16440948	        979.67321336	         73.75149364	         -0.25159810	          0.00000000	         -0.07859027	         -0.05753092	          0.54573182	          0.02731575	          0.00023224	          0.00000000	          0.00016411	          0.00000000	          0.61364448	          0.00000000	          0.00000000	          0.01138588	          0.00000000	
          4.09900000	         50.59741620	        980.83758698	         73.95368655	         -0.25121537	          0.00000000	         -0.07860319	         -0.05985166	          0.55397444	          0.02673150	          0.00022866	          0.00000000	          0.00016098	          0.00000000	          0.63526167	          0.00000000	          0.00000000	          0.01185357	          0.00000000	
          4.10000000	         51.03694658	        981.98960050	         74.15372168	         -0.25083439	          0.00000000	         -0.07861522	         -0.06214088	          0.56069515	          0.02598257	          0.00022380	          0.00000000	          0.00015689	          0.00000000	          0.65686914	          0.00000000	          0.00000000	          0.01231576	          0.00000000	
          4.10100000	         51.48316802	        983.12935646	         74.35140400	         -0.25045522	          0.00000000	         -0.07862632	         -0.06438620	          0.56572476	          0.02505674	          0.00021757	          0.00000000	          0.00015177	          0.00000000	          0.67844185	          0.00000000	          0.00000000	          0.01277004	          0.00000000	
          4.10200000	         51.93623405	        984.25696098	         74.54654029	         -0.25007794	          0.00000000	         -0.07863643	         -0.06657424	          0.56888535	          0.02394139	          0.00020986	          0.00000000	          0.00014554	          0.00000000	          0.69995570	          0.00000000	          0.00000000	          0.01321379	          0.00000000	
          4.10300000	         52.39628438	        985.37252386	         74.73894124	         -0.24970260	          0.00000000	         -0.07864552	         -0.06869067	          0.56999019	          0.02262352	          0.00020057	          0.00000000	          0.00013814	          0.00000000	          0.72138741	          0.00000000	          0.00000000	          0.01364421	          0.00000000	
          4.10400000	         52.86344555	        986.47615830	         74.92842359	         -0.24932929	          0.00000000	         -0.07865354	         -0.07072008	          0.56884370	          0.02108975	          0.00018958	          0.00000000	          0.00012948	          0.00000000	          0.74271423	          0.00000000	          0.00000000	          0.01405828	          0.00000000	
